<svg width="42" height="42" viewBox="0 0 42 42" fill="none" xmlns="http://www.w3.org/2000/svg">
<path fill-rule="evenodd" clip-rule="evenodd" d="M16.1907 11.0764C13.8947 8.74249 11.4191 6.47587 10.5965 6.62663C9.6032 6.80864 8.51909 11.488 7.80531 15.2387C5.27293 17.5454 3.7442 20.5372 3.7442 23.8065C3.7442 31.1023 11.3573 37.0164 20.7485 37.0164C30.1398 37.0164 37.7527 31.1023 37.7527 23.8065C37.7527 20.4989 36.188 17.4752 33.6022 15.1579C32.8883 11.4211 31.8127 6.80737 30.8266 6.62663C30.0054 6.47615 27.5374 8.734 25.2451 11.0633C23.8128 10.759 22.3051 10.5965 20.7485 10.5965C19.1698 10.5965 17.6413 10.7637 16.1907 11.0764Z" fill="#CCCCCC"/>
<g style="mix-blend-mode:multiply">
<path fill-rule="evenodd" clip-rule="evenodd" d="M16.1935 11.0758C15.5086 12.9526 14.9759 15.1844 16.15 15.5198C17.7034 15.9636 18.2608 14.3326 18.4431 13.4824C18.3257 14.4823 18.3402 16.6729 20.7485 16.5582C22.9211 16.4547 23.0734 14.7638 22.9666 13.7501C23.207 14.6644 23.8272 16.0264 25.347 15.5198C26.602 15.1014 26.0165 12.8896 25.2674 11.0406C25.26 11.0482 25.2525 11.0558 25.2451 11.0633C23.8128 10.759 22.3051 10.5965 20.7485 10.5965C19.1708 10.5965 17.6432 10.7634 16.1935 11.0758Z" fill="#C4C4C4" fill-opacity="0.6"/>
</g>
<path d="M36.5375 25.1849C38.5564 24.463 38.9062 24.342 41.0684 23.9568" stroke="#333333" stroke-width="0.562127" stroke-linecap="round" stroke-linejoin="round"/>
<path d="M36.217 29.2601C38.318 29.8145 39.1934 30.185 41.3857 30.387" stroke="#333333" stroke-width="0.562127" stroke-linecap="round" stroke-linejoin="round"/>
<path d="M36.4724 27.2849C38.4035 27.3988 39.045 27.171 40.9733 26.9294" stroke="#333333" stroke-width="0.562127" stroke-linecap="round" stroke-linejoin="round"/>
<path d="M5.46266 25.1849C3.44357 24.463 3.09365 24.342 0.93158 23.9568" stroke="#333333" stroke-width="0.562127" stroke-linecap="round" stroke-linejoin="round"/>
<path d="M5.783 29.2601C3.68201 29.8145 2.80658 30.185 0.614319 30.387" stroke="#333333" stroke-width="0.562127" stroke-linecap="round" stroke-linejoin="round"/>
<path d="M5.52763 27.2849C3.59652 27.3988 2.95513 27.171 1.02673 26.9294" stroke="#333333" stroke-width="0.562127" stroke-linecap="round" stroke-linejoin="round"/>
<path d="M13.4799 25.7001C15.3642 25.7001 16.8917 24.1726 16.8917 22.2883C16.8917 20.404 15.3642 18.8765 13.4799 18.8765C11.5956 18.8765 10.0681 20.404 10.0681 22.2883C10.0681 24.1726 11.5956 25.7001 13.4799 25.7001Z" fill="white"/>
<mask id="mask0_14_4" style="mask-type:alpha" maskUnits="userSpaceOnUse" x="10" y="18" width="7" height="8">
<path d="M13.4799 25.7001C15.3642 25.7001 16.8917 24.1726 16.8917 22.2883C16.8917 20.404 15.3642 18.8765 13.4799 18.8765C11.5956 18.8765 10.0681 20.404 10.0681 22.2883C10.0681 24.1726 11.5956 25.7001 13.4799 25.7001Z" fill="white"/>
</mask>
<g mask="url(#mask0_14_4)">
<path d="M14.0733 24.5133C15.7937 24.5133 17.1884 23.1186 17.1884 21.3982C17.1884 19.6778 15.7937 18.2831 14.0733 18.2831C12.3529 18.2831 10.9582 19.6778 10.9582 21.3982C10.9582 23.1186 12.3529 24.5133 14.0733 24.5133Z" fill="#333333"/>
</g>
<path d="M14.5573 21.0313C14.9066 21.0313 15.1897 20.7481 15.1897 20.3989C15.1897 20.0496 14.9066 19.7665 14.5573 19.7665C14.2081 19.7665 13.9249 20.0496 13.9249 20.3989C13.9249 20.7481 14.2081 21.0313 14.5573 21.0313Z" fill="white"/>
<path d="M28.6104 25.7001C26.7261 25.7001 25.1986 24.1726 25.1986 22.2883C25.1986 20.404 26.7261 18.8765 28.6104 18.8765C30.4947 18.8765 32.0222 20.404 32.0222 22.2883C32.0222 24.1726 30.4947 25.7001 28.6104 25.7001Z" fill="white"/>
<mask id="mask1_14_4" style="mask-type:alpha" maskUnits="userSpaceOnUse" x="25" y="18" width="8" height="8">
<path d="M28.6104 25.7001C26.7261 25.7001 25.1986 24.1726 25.1986 22.2883C25.1986 20.404 26.7261 18.8765 28.6104 18.8765C30.4947 18.8765 32.0222 20.404 32.0222 22.2883C32.0222 24.1726 30.4947 25.7001 28.6104 25.7001Z" fill="white"/>
</mask>
<g mask="url(#mask1_14_4)">
<path d="M28.0171 24.5133C26.2967 24.5133 24.902 23.1186 24.902 21.3982C24.902 19.6778 26.2967 18.2831 28.0171 18.2831C29.7375 18.2831 31.1322 19.6778 31.1322 21.3982C31.1322 23.1186 29.7375 24.5133 28.0171 24.5133Z" fill="#333333"/>
</g>
<path d="M27.533 21.0313C27.1837 21.0313 26.9006 20.7481 26.9006 20.3989C26.9006 20.0496 27.1837 19.7665 27.533 19.7665C27.8822 19.7665 28.1653 20.0496 28.1653 20.3989C28.1653 20.7481 27.8822 21.0313 27.533 21.0313Z" fill="white"/>
<path d="M20.8404 31.8085C24.1012 31.8085 26.7447 29.8795 26.7447 27.5C26.7447 25.1205 24.1012 23.1915 20.8404 23.1915C17.5796 23.1915 14.9362 25.1205 14.9362 27.5C14.9362 29.8795 17.5796 31.8085 20.8404 31.8085Z" fill="white" fill-opacity="0.25"/>
<path d="M22.2788 25.8519C22.2788 26.3951 21.6496 26.8355 20.8735 26.8355C20.0973 26.8355 19.4681 26.3951 19.4681 25.8519C19.4681 25.3087 20.0973 24.7275 20.8735 24.7275C21.6496 24.7275 22.2788 25.3087 22.2788 25.8519Z" fill="#333333"/>
<path d="M20.8734 25.4303V27.3979C20.8734 28.0186 20.3701 28.5219 19.7492 28.5219H19.3979C18.971 28.5219 18.6249 28.1759 18.6249 27.7492" stroke="#323232" stroke-width="0.421593" stroke-linecap="round" stroke-linejoin="round"/>
<path d="M20.8735 25.4303V27.3979C20.8735 28.0186 21.3768 28.5219 21.9977 28.5219H22.349C22.7759 28.5219 23.122 28.1759 23.122 27.7492" stroke="#323232" stroke-width="0.421593" stroke-linecap="round" stroke-linejoin="round"/>
<path d="M9.18727 14.1199C9.6022 12.0664 10.0039 10.6854 10.8357 8.56137C10.8992 8.39934 11.0944 8.33392 11.2421 8.42586C12.8537 9.42901 13.7401 10.1975 14.9623 11.5133C15.1039 11.6657 15.034 11.9134 14.8342 11.9714C12.7198 12.5852 11.406 12.9936 9.65744 14.3965C9.44856 14.5641 9.13423 14.3824 9.18727 14.1199Z" fill="#B0B0B0"/>
<path d="M31.9528 13.9201C31.7409 11.815 31.5395 10.5634 30.6651 8.40915C30.6 8.24865 30.405 8.1862 30.2588 8.27916C28.7977 9.20849 27.9638 9.8984 26.5956 11.1777C26.4367 11.3261 26.5002 11.5911 26.7086 11.6532C28.7843 12.2727 29.7667 12.7135 31.4824 14.1625C31.6774 14.3271 31.9784 14.1739 31.9528 13.9201Z" fill="#B0B0B0"/>
<path d="M25.1396 7.25411C24.8207 7.29067 24.5325 7.06179 24.496 6.74289C24.4594 6.424 24.6883 6.13584 25.0072 6.09928C25.3261 6.06272 25.6142 6.2916 25.6508 6.61049C25.6874 6.92939 25.4585 7.21755 25.1396 7.25411Z" fill="#FFC547"/>
<path d="M21.699 5.30855C21.3801 5.34511 21.0919 5.11623 21.0554 4.79734C21.0188 4.47844 21.2477 4.19029 21.5666 4.15372C21.8855 4.11716 22.1736 4.34604 22.2102 4.66494C22.2467 4.98383 22.0179 5.27199 21.699 5.30855Z" fill="#FFC547"/>
<path d="M17.605 6.16793C17.2861 6.20449 16.9979 5.97561 16.9614 5.65671C16.9248 5.33782 17.1537 5.04966 17.4726 5.0131C17.7915 4.97654 18.0796 5.20542 18.1162 5.52431C18.1527 5.84321 17.9239 6.13136 17.605 6.16793Z" fill="#FFC547"/>
<path d="M25.0418 8.17371L24.2696 11.8991C24.233 12.0756 24.0457 12.1761 23.8773 12.1117C21.7495 11.2983 20.29 11.0073 17.9992 11.2848C17.8216 11.3062 17.6636 11.1671 17.6672 10.9883L17.7461 6.97348C17.7513 6.71127 18.0737 6.58951 18.2509 6.78285L19.5443 8.19435C19.6799 8.34225 19.9209 8.31161 20.0152 8.13448L21.1748 5.95422C21.2967 5.72507 21.635 5.75851 21.7097 6.0071L22.5053 8.65648C22.5591 8.83552 22.7655 8.91796 22.9278 8.82525L24.6132 7.86241C24.8305 7.73826 25.0927 7.92863 25.0418 8.17371Z" fill="#FFC547"/>
<path d="M12.0638 30.2128C13.1214 30.2128 13.9787 29.927 13.9787 29.5745C13.9787 29.2219 13.1214 28.9362 12.0638 28.9362C11.0063 28.9362 10.1489 29.2219 10.1489 29.5745C10.1489 29.927 11.0063 30.2128 12.0638 30.2128Z" fill="#FFA787"/>
<path d="M29.9362 30.2128C30.9938 30.2128 31.8511 29.927 31.8511 29.5745C31.8511 29.2219 30.9938 28.9362 29.9362 28.9362C28.8786 28.9362 28.0213 29.2219 28.0213 29.5745C28.0213 29.927 28.8786 30.2128 29.9362 30.2128Z" fill="#FFA787"/>
<path d="M11.9966 28.0734C15.5193 28.0734 18.3751 25.2176 18.3751 21.6949C18.3751 18.1721 15.5193 15.3163 11.9966 15.3163C8.47377 15.3163 5.61798 18.1721 5.61798 21.6949C5.61798 25.2176 8.47377 28.0734 11.9966 28.0734Z" stroke="#323232" stroke-width="0.593355"/>
<path d="M29.797 28.0734C33.3198 28.0734 36.1756 25.2176 36.1756 21.6949C36.1756 18.1721 33.3198 15.3163 29.797 15.3163C26.2742 15.3163 23.4185 18.1721 23.4185 21.6949C23.4185 25.2176 26.2742 28.0734 29.797 28.0734Z" stroke="#323232" stroke-width="0.593355"/>
<path d="M18.3751 21.2045C20.2748 20.8664 21.3896 20.8725 23.4186 21.2045V22.4364C21.481 22.1284 20.3762 22.124 18.3751 22.4364V21.2045Z" fill="#242424"/>
</svg>
